<?xml version="1.0" encoding="UTF-8"?>
<svg version="1.1" xmlns="http://www.w3.org/2000/svg" width="222" height="146">
<path d="M0 0 C73.26 0 146.52 0 222 0 C222 48.18 222 96.36 222 146 C148.74 146 75.48 146 0 146 C0 97.82 0 49.64 0 0 Z " fill="#37175E" transform="translate(0,0)"/>
<path d="M0 0 C16.97713787 3.21189095 30.68530058 12.03839245 40.875 25.9375 C48.92576418 38.29906456 52.35895085 48.55869756 52.375 63.1875 C52.39949219 64.34314453 52.42398438 65.49878906 52.44921875 66.68945312 C52.50729204 83.92754073 44.82436093 99.23465052 32.8046875 111.34375 C22.76677903 120.85040426 8.4742802 128.17273553 -5.640625 128.09765625 C-6.71054688 128.09443359 -7.78046875 128.09121094 -8.8828125 128.08789062 C-9.99398437 128.07951172 -11.10515625 128.07113281 -12.25 128.0625 C-13.93996094 128.05573242 -13.93996094 128.05573242 -15.6640625 128.04882812 C-18.44276217 128.03705397 -21.22135409 128.0206084 -24 128 C-22.50842866 122.72149476 -20.07525874 118.45492681 -17.25 113.8125 C-16.33854812 112.2898373 -15.42838795 110.76640065 -14.51953125 109.2421875 C-13.86331787 108.14342285 -13.86331787 108.14342285 -13.19384766 107.02246094 C-11.22394368 103.68530663 -9.3903573 100.2792517 -7.5546875 96.8671875 C-5.59128583 93.24624069 -3.57998005 89.653522 -1.5625 86.0625 C-1.1816626 85.38074707 -0.8008252 84.69899414 -0.40844727 83.99658203 C1.39265933 80.78703079 3.22139246 77.60817923 5.16796875 74.484375 C6.13669922 72.91429688 6.13669922 72.91429688 7.125 71.3125 C7.70507812 70.40113281 8.28515625 69.48976563 8.8828125 68.55078125 C10.28698788 65.34474446 10.19478882 64.27962275 9 61 C7.5981991 58.35957659 6.03657008 55.83721861 4.4375 53.3125 C0 46.24886191 0 46.24886191 0 44 C-7.59 44 -15.18 44 -23 44 C-22.11909457 39.59547286 -21.27299153 37.31691311 -19.12109375 33.53515625 C-18.53279785 32.49351318 -17.94450195 31.45187012 -17.33837891 30.37866211 C-16.71108887 29.28432861 -16.08379883 28.18999512 -15.4375 27.0625 C-14.48883057 25.38909546 -14.48883057 25.38909546 -13.52099609 23.68188477 C-11.68730606 20.45075115 -9.84475716 17.2248243 -8 14 C-7.09724273 12.41429785 -6.19484023 10.82839361 -5.29296875 9.2421875 C-3.53656619 6.15688058 -1.77206381 3.0763468 0 0 Z " fill="#F58A24" transform="translate(122,8)"/>
<path d="M0 0 C1.02068069 0.00015106 2.04136139 0.00030212 3.0929718 0.00045776 C4.72760628 0.01594162 4.72760628 0.01594162 6.39526367 0.03173828 C7.52018723 0.03456818 8.64511078 0.03739807 9.80412292 0.04031372 C13.39060178 0.05149242 16.97682927 0.07659315 20.56323242 0.10205078 C22.9974736 0.11208355 25.4317187 0.12120888 27.8659668 0.12939453 C33.82764084 0.15142422 39.78916867 0.18487904 45.75073242 0.22705078 C43.67436184 2.34414164 41.61885284 4.0896388 39.18823242 5.78955078 C26.3342162 15.41829187 16.85042156 27.95631499 11.75073242 43.22705078 C11.35885742 44.27892578 10.96698242 45.33080078 10.56323242 46.41455078 C6.59311032 60.15728115 6.73000701 78.89894034 11.75073242 92.22705078 C12.27860352 93.70625 12.27860352 93.70625 12.81713867 95.21533203 C19.25024794 111.92443103 30.81141679 126.76945473 46.75073242 135.22705078 C46.75073242 135.55705078 46.75073242 135.88705078 46.75073242 136.22705078 C39.79483115 136.30346514 32.83903919 136.35580308 25.8828125 136.3918457 C23.51916458 136.40688019 21.15554431 136.4273132 18.79199219 136.45336914 C15.38363801 136.48998723 11.9756545 136.50683109 8.56713867 136.52001953 C7.51990128 136.53550339 6.47266388 136.55098724 5.39369202 136.56694031 C-2.40828204 136.56870755 -9.60577709 135.83900938 -15.62426758 130.47705078 C-21.34572048 124.65522152 -21.69033066 117.69743797 -21.65332031 110.01245117 C-21.66018356 109.00990799 -21.66704681 108.00736481 -21.67411804 106.97444153 C-21.69235598 103.67438424 -21.68855274 100.37480371 -21.68286133 97.07470703 C-21.6874245 94.77216945 -21.69273048 92.46963324 -21.69874573 90.167099 C-21.70767091 85.34628763 -21.70526027 80.52564198 -21.6953125 75.70483398 C-21.68382286 69.5367285 -21.70403784 63.3691955 -21.73322964 57.2011652 C-21.75160317 52.44754929 -21.75129684 47.69407029 -21.74559212 42.94042778 C-21.74543905 40.66671381 -21.75147128 38.39299047 -21.76388359 36.11931038 C-21.7788133 32.93619311 -21.76810116 29.75412993 -21.75097656 26.57104492 C-21.76064453 25.63832764 -21.7703125 24.70561035 -21.78027344 23.74462891 C-21.70241185 16.80928672 -20.07998399 11.50738881 -15.50317383 6.20361328 C-14.94500977 5.75759766 -14.3868457 5.31158203 -13.81176758 4.85205078 C-13.25618164 4.39056641 -12.7005957 3.92908203 -12.12817383 3.45361328 C-8.18469538 0.87928431 -4.6804679 -0.02322813 0 0 Z " fill="#FCFCFD" transform="translate(25.249267578125,4.77294921875)"/>
<path d="M0 0 C6.99252309 -0.07625818 13.98493835 -0.12868729 20.9777832 -0.16479492 C23.35510262 -0.17985252 25.73239439 -0.20030289 28.10961914 -0.22631836 C31.53278439 -0.26283403 34.95558132 -0.27975709 38.37890625 -0.29296875 C39.43646622 -0.30845261 40.49402618 -0.32393646 41.58363342 -0.33988953 C48.93699424 -0.3415549 53.95160191 0.37695979 59.6875 5.3125 C65.33125547 11.87145906 66.58861243 15.89833548 66.51757812 24.37646484 C66.5245874 25.40812271 66.53159668 26.43978058 66.53881836 27.50270081 C66.55639188 30.90572197 66.54477553 34.30790818 66.53125 37.7109375 C66.53394549 40.08216511 66.53782839 42.45339165 66.54284668 44.82461548 C66.54874124 49.79268931 66.54018129 54.76047528 66.52148438 59.72851562 C66.49872022 66.08611724 66.51180278 72.44304244 66.53577423 78.80061913 C66.55025432 83.69751038 66.54561554 88.59424231 66.53526306 93.49113846 C66.53260062 95.83462225 66.53584849 98.17812065 66.54518127 100.52158737 C66.55538005 103.8030277 66.53979682 107.083386 66.51757812 110.36474609 C66.52567505 111.32708664 66.53377197 112.28942719 66.54211426 113.28092957 C66.45684756 120.10451157 65.11492127 125.78055117 60.25390625 130.8046875 C59.41666016 131.33449219 59.41666016 131.33449219 58.5625 131.875 C58.00691406 132.24367187 57.45132813 132.61234375 56.87890625 132.9921875 C52.77932374 135.19113197 49.42005158 136.25022358 44.75073242 136.22705078 C43.73005173 136.22689972 42.70937103 136.22674866 41.65776062 136.22659302 C40.02312614 136.21110916 40.02312614 136.21110916 38.35546875 136.1953125 C37.2305452 136.1924826 36.10562164 136.18965271 34.9466095 136.18673706 C31.36013064 136.17555836 27.77390315 136.15045763 24.1875 136.125 C21.75325882 136.11496723 19.31901372 136.1058419 16.88476562 136.09765625 C10.92309158 136.07562656 4.96156375 136.04217174 -1 136 C1.47895478 134.00764147 3.95664933 132.03227667 6.5078125 130.1328125 C23.09507893 117.40765587 33.31524041 99.56544756 37 79 C37.75550331 67.33205268 38.1152384 55.07313142 34 44 C33.64808594 43.01257812 33.29617187 42.02515625 32.93359375 41.0078125 C26.71674733 24.88094358 16.26503526 12.58306022 2.2734375 2.6796875 C1.52320313 2.12539062 0.77296875 1.57109375 0 1 C0 0.67 0 0.34 0 0 Z " fill="#FDFDFD" transform="translate(150,5)"/>
<path d="M0 0 C-1.59760453 5.83556147 -4.5304877 10.69597744 -7.5625 15.875 C-8.65009975 17.75630225 -9.73733592 19.63781473 -10.82421875 21.51953125 C-11.63125244 22.91099365 -11.63125244 22.91099365 -12.45458984 24.33056641 C-17.78058224 33.53031379 -23.01488103 42.74007673 -27.640625 52.31640625 C-29.32224229 55.63615073 -31.26585497 58.76067272 -33.3125 61.8671875 C-34.35673664 65.10669435 -33.32751373 66.92293061 -32 70 C-30.83975431 72.11049216 -29.63001977 74.19445321 -28.375 76.25 C-25 81.7877551 -25 81.7877551 -25 84 C-40.84 84 -56.68 84 -73 84 C-79.22103964 71.55792071 -78.06486309 54.9280984 -74 42 C-67.04297862 24.83934725 -54.07814764 10.77501005 -37.125 3.25 C-27.60617517 -0.46903835 -9.76238148 -4.88119074 0 0 Z " fill="#4D7FA2" transform="translate(122,8)"/>
<path d="M0 0 C7.93535664 -0.82037205 16.33892077 -1.59567752 24 1 C29.49637452 5.50938339 33.44754088 13.084166 35 20 C34.62236885 23.51709303 33.60039775 26.09034605 31.8125 29.1171875 C31.36543701 29.881521 30.91837402 30.64585449 30.45776367 31.43334961 C29.73617065 32.64196655 29.73617065 32.64196655 29 33.875 C28.50669189 34.71490479 28.01338379 35.55480957 27.50512695 36.42016602 C24.8107746 40.99575135 22.0699085 45.54225548 19.31420898 50.08105469 C18.75648804 50.99999512 18.75648804 50.99999512 18.1875 51.9375 C17.81761963 52.54625977 17.44773926 53.15501953 17.06665039 53.78222656 C14.28904727 58.40133104 11.89569804 63.14382434 9.55078125 67.9921875 C6.69831296 73.52468267 3.33689768 78.74904425 0 84 C-12.50370531 84 -24.15967501 76.72513118 -32.96826172 68.27978516 C-40.36872331 60.80759877 -46.73955857 52.10202344 -50 42 C-49.67 41.34 -49.34 40.68 -49 40 C-33.16 40.33 -17.32 40.66 -1 41 C-4.3 35.06 -7.6 29.12 -11 23 C-8.75192308 16.25576923 -8.75192308 16.25576923 -7.08984375 13.45703125 C-6.73986328 12.85826172 -6.38988281 12.25949219 -6.02929688 11.64257812 C-5.66900391 11.03865234 -5.30871094 10.43472656 -4.9375 9.8125 C-2.11129079 5.08109198 -2.11129079 5.08109198 0 0 Z " fill="#8B339A" transform="translate(98,51)"/>
<path d="M0 0 C17.03273222 3.2224088 30.76211219 12.08507744 40.9375 26.0625 C49 38.43290441 49 38.43290441 49 44 C25.24 44 1.48 44 -23 44 C-22.11909457 39.59547286 -21.27299153 37.31691311 -19.12109375 33.53515625 C-18.53279785 32.49351318 -17.94450195 31.45187012 -17.33837891 30.37866211 C-16.71108887 29.28432861 -16.08379883 28.18999512 -15.4375 27.0625 C-14.48883057 25.38909546 -14.48883057 25.38909546 -13.52099609 23.68188477 C-11.68730606 20.45075115 -9.84475716 17.2248243 -8 14 C-7.09724273 12.41429785 -6.19484023 10.82839361 -5.29296875 9.2421875 C-3.53656619 6.15688058 -1.77206381 3.0763468 0 0 Z " fill="#F6DE55" transform="translate(122,8)"/>
<path d="M0 0 C2.54277269 3.21750499 4.56232643 6.59770359 6.58203125 10.1640625 C6.91869308 10.75617523 7.25535492 11.34828796 7.60221863 11.95834351 C8.67489522 13.84577692 9.74392439 15.73524227 10.8125 17.625 C11.86771054 19.48742118 12.92373373 21.34936885 13.98141479 23.21038818 C14.67009856 24.42352599 15.35658529 25.63791381 16.040802 26.85357666 C18.57382049 31.33235409 21.29783592 35.65939845 24.1706543 39.92724609 C25 42 25 42 24.2565918 44.15136719 C18.93269343 51.98361091 10.49716349 56.40994842 2 60 C1.071875 60.41507813 0.14375 60.83015625 -0.8125 61.2578125 C-11.76133992 65.42186598 -23.47495979 64.36636636 -35 64 C-33.50842866 58.72149476 -31.07525874 54.45492681 -28.25 49.8125 C-27.33854812 48.2898373 -26.42838795 46.76640065 -25.51953125 45.2421875 C-25.08205566 44.50967773 -24.64458008 43.77716797 -24.19384766 43.02246094 C-22.22245991 39.68279303 -20.38752919 36.274174 -18.55078125 32.859375 C-12.55493653 21.80406433 -6.25593049 10.90952456 0 0 Z " fill="#E14E6B" transform="translate(133,72)"/>
<path d="M0 0 C7.93535664 -0.82037205 16.33892077 -1.59567752 24 1 C29.49637452 5.50938339 33.44754088 13.084166 35 20 C34.00136002 27.92096111 30.34525363 36.94987964 24 42 C16.45385253 44.77872085 7.58936879 44.55922259 0 42 C-4.55513407 38.8781467 -6.23267004 34.05444854 -8 29 C-8.59167969 27.99195312 -9.18335937 26.98390625 -9.79296875 25.9453125 C-11 23 -11 23 -10.44140625 20.07421875 C-8.78032679 16.53148288 -6.94102093 13.17081684 -4.9375 9.8125 C-2.11129079 5.08109198 -2.11129079 5.08109198 0 0 Z " fill="#36155C" transform="translate(98,51)"/>
<path d="M0 0 C0.66 0.33 1.32 0.66 2 1 C1.34 1.66 0.68 2.32 0 3 C14.85 3.33 29.7 3.66 45 4 C45 4.33 45 4.66 45 5 C28.17 5 11.34 5 -6 5 C-4.35 3.68 -2.7 2.36 -1 1 C-0.67 0.67 -0.34 0.34 0 0 Z " fill="#D1C9D9" transform="translate(155,136)"/>
</svg>
