<?xml version="1.0" encoding="UTF-8"?>
<svg version="1.1" xmlns="http://www.w3.org/2000/svg" width="503" height="367">
<path d="M0 0 C165.99 0 331.98 0 503 0 C503 121.11 503 242.22 503 367 C337.01 367 171.02 367 0 367 C0 245.89 0 124.78 0 0 Z " fill="#34145C" transform="translate(0,0)"/>
<path d="M0 0 C16.97713787 3.21189095 30.68530058 12.03839245 40.875 25.9375 C48.92576418 38.29906456 52.35895085 48.55869756 52.375 63.1875 C52.39949219 64.34314453 52.42398438 65.49878906 52.44921875 66.68945312 C52.50729204 83.92754073 44.82436093 99.23465052 32.8046875 111.34375 C22.76677903 120.85040426 8.4742802 128.17273553 -5.640625 128.09765625 C-6.71054688 128.09443359 -7.78046875 128.09121094 -8.8828125 128.08789062 C-9.99398437 128.07951172 -11.10515625 128.07113281 -12.25 128.0625 C-13.93996094 128.05573242 -13.93996094 128.05573242 -15.6640625 128.04882812 C-18.44276217 128.03705397 -21.22135409 128.0206084 -24 128 C-22.50842866 122.72149476 -20.07525874 118.45492681 -17.25 113.8125 C-16.33854812 112.2898373 -15.42838795 110.76640065 -14.51953125 109.2421875 C-13.86331787 108.14342285 -13.86331787 108.14342285 -13.19384766 107.02246094 C-11.22394368 103.68530663 -9.3903573 100.2792517 -7.5546875 96.8671875 C-5.59128583 93.24624069 -3.57998005 89.653522 -1.5625 86.0625 C-1.1816626 85.38074707 -0.8008252 84.69899414 -0.40844727 83.99658203 C1.39265933 80.78703079 3.22139246 77.60817923 5.16796875 74.484375 C6.13669922 72.91429687 6.13669922 72.91429687 7.125 71.3125 C7.70507812 70.40113281 8.28515625 69.48976563 8.8828125 68.55078125 C10.28698788 65.34474446 10.19478882 64.27962275 9 61 C7.5981991 58.35957659 6.03657008 55.83721861 4.4375 53.3125 C0 46.24886191 0 46.24886191 0 44 C-7.59 44 -15.18 44 -23 44 C-22.11909457 39.59547286 -21.27299153 37.31691311 -19.12109375 33.53515625 C-18.53279785 32.49351318 -17.94450195 31.45187012 -17.33837891 30.37866211 C-16.71108887 29.28432861 -16.08379883 28.18999512 -15.4375 27.0625 C-14.48883057 25.38909546 -14.48883057 25.38909546 -13.52099609 23.68188477 C-11.68730606 20.45075115 -9.84475716 17.2248243 -8 14 C-7.09724273 12.41429785 -6.19484023 10.82839361 -5.29296875 9.2421875 C-3.53656619 6.15688058 -1.77206381 3.0763468 0 0 Z " fill="#F58A24" transform="translate(254,65)"/>
<path d="M0 0 C1.02068069 0.00015106 2.04136139 0.00030212 3.0929718 0.00045776 C4.72760628 0.01594162 4.72760628 0.01594162 6.39526367 0.03173828 C7.52018723 0.03456818 8.64511078 0.03739807 9.80412292 0.04031372 C13.39060178 0.05149242 16.97682927 0.07659315 20.56323242 0.10205078 C22.9974736 0.11208355 25.4317187 0.12120888 27.8659668 0.12939453 C33.82764084 0.15142422 39.78916867 0.18487904 45.75073242 0.22705078 C43.67436184 2.34414164 41.61885284 4.0896388 39.18823242 5.78955078 C26.3342162 15.41829187 16.85042156 27.95631499 11.75073242 43.22705078 C11.35885742 44.27892578 10.96698242 45.33080078 10.56323242 46.41455078 C6.59311032 60.15728115 6.73000701 78.89894034 11.75073242 92.22705078 C12.27860352 93.70625 12.27860352 93.70625 12.81713867 95.21533203 C19.25024794 111.92443103 30.81141679 126.76945473 46.75073242 135.22705078 C46.75073242 135.55705078 46.75073242 135.88705078 46.75073242 136.22705078 C39.79483115 136.30346514 32.83903919 136.35580308 25.8828125 136.3918457 C23.51916458 136.40688019 21.15554431 136.4273132 18.79199219 136.45336914 C15.38363801 136.48998723 11.9756545 136.50683109 8.56713867 136.52001953 C7.51990128 136.53550339 6.47266388 136.55098724 5.39369202 136.56694031 C-2.40828204 136.56870755 -9.60577709 135.83900938 -15.62426758 130.47705078 C-21.34572048 124.65522152 -21.69033066 117.69743797 -21.65332031 110.01245117 C-21.66018356 109.00990799 -21.66704681 108.00736481 -21.67411804 106.97444153 C-21.69235598 103.67438424 -21.68855274 100.37480371 -21.68286133 97.07470703 C-21.6874245 94.77216945 -21.69273048 92.46963324 -21.69874573 90.167099 C-21.70767091 85.34628763 -21.70526027 80.52564198 -21.6953125 75.70483398 C-21.68382286 69.5367285 -21.70403784 63.3691955 -21.73322964 57.2011652 C-21.75160317 52.44754929 -21.75129684 47.69407029 -21.74559212 42.94042778 C-21.74543905 40.66671381 -21.75147128 38.39299047 -21.76388359 36.11931038 C-21.7788133 32.93619311 -21.76810116 29.75412993 -21.75097656 26.57104492 C-21.76064453 25.63832764 -21.7703125 24.70561035 -21.78027344 23.74462891 C-21.70241185 16.80928672 -20.07998399 11.50738881 -15.50317383 6.20361328 C-14.94500977 5.75759766 -14.3868457 5.31158203 -13.81176758 4.85205078 C-13.25618164 4.39056641 -12.7005957 3.92908203 -12.12817383 3.45361328 C-8.18469538 0.87928431 -4.6804679 -0.02322813 0 0 Z " fill="#FCFCFD" transform="translate(157.249267578125,61.77294921875)"/>
<path d="M0 0 C6.99252309 -0.07625818 13.98493835 -0.12868729 20.9777832 -0.16479492 C23.35510262 -0.17985252 25.73239439 -0.20030289 28.10961914 -0.22631836 C31.53278439 -0.26283403 34.95558132 -0.27975709 38.37890625 -0.29296875 C39.43646622 -0.30845261 40.49402618 -0.32393646 41.58363342 -0.33988953 C48.93699424 -0.3415549 53.95160191 0.37695979 59.6875 5.3125 C65.33125547 11.87145906 66.58861243 15.89833548 66.51757812 24.37646484 C66.5245874 25.40812271 66.53159668 26.43978058 66.53881836 27.50270081 C66.55639188 30.90572197 66.54477553 34.30790818 66.53125 37.7109375 C66.53394549 40.08216511 66.53782839 42.45339165 66.54284668 44.82461548 C66.54874124 49.79268931 66.54018129 54.76047528 66.52148438 59.72851562 C66.49872022 66.08611724 66.51180278 72.44304244 66.53577423 78.80061913 C66.55025432 83.69751038 66.54561554 88.59424231 66.53526306 93.49113846 C66.53260062 95.83462225 66.53584849 98.17812065 66.54518127 100.52158737 C66.55538005 103.8030277 66.53979682 107.083386 66.51757812 110.36474609 C66.52567505 111.32708664 66.53377197 112.28942719 66.54211426 113.28092957 C66.45684756 120.10451157 65.11492127 125.78055117 60.25390625 130.8046875 C59.41666016 131.33449219 59.41666016 131.33449219 58.5625 131.875 C58.00691406 132.24367187 57.45132813 132.61234375 56.87890625 132.9921875 C52.77932374 135.19113197 49.42005158 136.25022358 44.75073242 136.22705078 C43.73005173 136.22689972 42.70937103 136.22674866 41.65776062 136.22659302 C40.02312614 136.21110916 40.02312614 136.21110916 38.35546875 136.1953125 C37.2305452 136.1924826 36.10562164 136.18965271 34.9466095 136.18673706 C31.36013064 136.17555836 27.77390315 136.15045763 24.1875 136.125 C21.75325882 136.11496723 19.31901372 136.1058419 16.88476562 136.09765625 C10.92309158 136.07562656 4.96156375 136.04217174 -1 136 C1.47895478 134.00764147 3.95664933 132.03227667 6.5078125 130.1328125 C23.09507893 117.40765587 33.31524041 99.56544756 37 79 C37.75550331 67.33205268 38.1152384 55.07313142 34 44 C33.64808594 43.01257813 33.29617188 42.02515625 32.93359375 41.0078125 C26.71674733 24.88094358 16.26503526 12.58306022 2.2734375 2.6796875 C1.52320313 2.12539062 0.77296875 1.57109375 0 1 C0 0.67 0 0.34 0 0 Z " fill="#FDFDFD" transform="translate(282,62)"/>
<path d="M0 0 C-1.59760453 5.83556147 -4.5304877 10.69597744 -7.5625 15.875 C-8.65009975 17.75630225 -9.73733592 19.63781473 -10.82421875 21.51953125 C-11.63125244 22.91099365 -11.63125244 22.91099365 -12.45458984 24.33056641 C-17.78058224 33.53031379 -23.01488103 42.74007673 -27.640625 52.31640625 C-29.32224229 55.63615073 -31.26585497 58.76067272 -33.3125 61.8671875 C-34.35673664 65.10669435 -33.32751373 66.92293061 -32 70 C-30.83975431 72.11049216 -29.63001977 74.19445321 -28.375 76.25 C-25 81.7877551 -25 81.7877551 -25 84 C-40.84 84 -56.68 84 -73 84 C-79.22103964 71.55792071 -78.06486309 54.9280984 -74 42 C-67.04297862 24.83934725 -54.07814764 10.77501005 -37.125 3.25 C-27.60617517 -0.46903835 -9.76238148 -4.88119074 0 0 Z " fill="#4D7FA2" transform="translate(254,65)"/>
<path d="M0 0 C7.93535664 -0.82037205 16.33892077 -1.59567752 24 1 C29.49637452 5.50938339 33.44754088 13.084166 35 20 C34.62236885 23.51709303 33.60039775 26.09034605 31.8125 29.1171875 C31.36543701 29.881521 30.91837402 30.64585449 30.45776367 31.43334961 C29.73617065 32.64196655 29.73617065 32.64196655 29 33.875 C28.50669189 34.71490479 28.01338379 35.55480957 27.50512695 36.42016602 C24.8107746 40.99575135 22.0699085 45.54225548 19.31420898 50.08105469 C18.75648804 50.99999512 18.75648804 50.99999512 18.1875 51.9375 C17.81761963 52.54625977 17.44773926 53.15501953 17.06665039 53.78222656 C14.28904727 58.40133104 11.89569804 63.14382434 9.55078125 67.9921875 C6.69831296 73.52468267 3.33689768 78.74904425 0 84 C-12.50370531 84 -24.15967501 76.72513118 -32.96826172 68.27978516 C-40.36872331 60.80759877 -46.73955857 52.10202344 -50 42 C-49.67 41.34 -49.34 40.68 -49 40 C-33.16 40.33 -17.32 40.66 -1 41 C-4.3 35.06 -7.6 29.12 -11 23 C-8.75192308 16.25576923 -8.75192308 16.25576923 -7.08984375 13.45703125 C-6.73986328 12.85826172 -6.38988281 12.25949219 -6.02929688 11.64257812 C-5.66900391 11.03865234 -5.30871094 10.43472656 -4.9375 9.8125 C-2.11129079 5.08109198 -2.11129079 5.08109198 0 0 Z " fill="#8B339A" transform="translate(230,108)"/>
<path d="M0 0 C17.03273222 3.2224088 30.76211219 12.08507744 40.9375 26.0625 C49 38.43290441 49 38.43290441 49 44 C25.24 44 1.48 44 -23 44 C-22.11909457 39.59547286 -21.27299153 37.31691311 -19.12109375 33.53515625 C-18.53279785 32.49351318 -17.94450195 31.45187012 -17.33837891 30.37866211 C-16.71108887 29.28432861 -16.08379883 28.18999512 -15.4375 27.0625 C-14.48883057 25.38909546 -14.48883057 25.38909546 -13.52099609 23.68188477 C-11.68730606 20.45075115 -9.84475716 17.2248243 -8 14 C-7.09724273 12.41429785 -6.19484023 10.82839361 -5.29296875 9.2421875 C-3.53656619 6.15688058 -1.77206381 3.0763468 0 0 Z " fill="#F6DE55" transform="translate(254,65)"/>
<path d="M0 0 C2.54277269 3.21750499 4.56232643 6.59770359 6.58203125 10.1640625 C6.91869308 10.75617523 7.25535492 11.34828796 7.60221863 11.95834351 C8.67489522 13.84577692 9.74392439 15.73524227 10.8125 17.625 C11.86771054 19.48742118 12.92373373 21.34936885 13.98141479 23.21038818 C14.67009856 24.42352599 15.35658529 25.63791381 16.040802 26.85357666 C18.57382049 31.33235409 21.29783592 35.65939845 24.1706543 39.92724609 C25 42 25 42 24.2565918 44.15136719 C18.93269343 51.98361091 10.49716349 56.40994842 2 60 C1.071875 60.41507813 0.14375 60.83015625 -0.8125 61.2578125 C-11.76133992 65.42186598 -23.47495979 64.36636636 -35 64 C-33.50842866 58.72149476 -31.07525874 54.45492681 -28.25 49.8125 C-27.33854812 48.2898373 -26.42838795 46.76640065 -25.51953125 45.2421875 C-25.08205566 44.50967773 -24.64458008 43.77716797 -24.19384766 43.02246094 C-22.22245991 39.68279303 -20.38752919 36.274174 -18.55078125 32.859375 C-12.55493653 21.80406433 -6.25593049 10.90952456 0 0 Z " fill="#E14E6B" transform="translate(265,129)"/>
<path d="M0 0 C7.93535664 -0.82037205 16.33892077 -1.59567752 24 1 C29.49637452 5.50938339 33.44754088 13.084166 35 20 C34.00136002 27.92096111 30.34525363 36.94987964 24 42 C16.45385253 44.77872085 7.58936879 44.55922259 0 42 C-4.55513407 38.8781467 -6.23267004 34.05444854 -8 29 C-8.59167969 27.99195313 -9.18335938 26.98390625 -9.79296875 25.9453125 C-11 23 -11 23 -10.44140625 20.07421875 C-8.78032679 16.53148288 -6.94102093 13.17081684 -4.9375 9.8125 C-2.11129079 5.08109198 -2.11129079 5.08109198 0 0 Z " fill="#36155C" transform="translate(230,108)"/>
<path d="M0 0 C6.31125 -0.0928125 6.31125 -0.0928125 12.75 -0.1875 C14.7314502 -0.22846802 14.7314502 -0.22846802 16.75292969 -0.27026367 C18.32155762 -0.28150269 18.32155762 -0.28150269 19.921875 -0.29296875 C20.99018555 -0.3086792 22.05849609 -0.32438965 23.15917969 -0.34057617 C26.44035069 0.05279213 27.78972196 0.54330031 30 3 C30.50170898 5.58789062 30.50170898 5.58789062 30.49609375 8.65625 C30.49673828 9.76097656 30.49738281 10.86570313 30.49804688 12.00390625 C30.47806641 13.15761719 30.45808594 14.31132812 30.4375 15.5 C30.44458984 16.65371094 30.45167969 17.80742187 30.45898438 18.99609375 C30.39552417 27.36307729 30.39552417 27.36307729 28.86035156 29.83520508 C26.138864 31.53917059 23.99131079 31.33790579 20.80078125 31.29296875 C19.16749878 31.28172974 19.16749878 31.28172974 17.5012207 31.27026367 C16.11894287 31.24295166 14.73666504 31.21563965 13.3125 31.1875 C8.919375 31.125625 4.52625 31.06375 0 31 C0 20.77 0 10.54 0 0 Z " fill="#EEEBF1" transform="translate(196,230)"/>
<path d="M0 0 C0.96164062 -0.00515625 1.92328125 -0.0103125 2.9140625 -0.015625 C3.91179687 -0.00015625 4.90953125 0.0153125 5.9375 0.03125 C6.93523437 0.01578125 7.93296875 0.0003125 8.9609375 -0.015625 C9.92257812 -0.01046875 10.88421875 -0.0053125 11.875 0 C13.18791016 0.00676758 13.18791016 0.00676758 14.52734375 0.01367188 C17.81661491 0.72003886 18.97392835 1.81772645 20.9375 4.53125 C21.39160156 7.46386719 21.39160156 7.46386719 21.328125 10.828125 C21.30878906 12.63603516 21.30878906 12.63603516 21.2890625 14.48046875 C21.25554687 15.73472656 21.22203125 16.98898438 21.1875 18.28125 C21.16945313 19.55097656 21.15140625 20.82070312 21.1328125 22.12890625 C21.08567153 25.26378077 21.01987664 28.3971356 20.9375 31.53125 C18.9575 31.53125 16.9775 31.53125 14.9375 31.53125 C14.9375 28.23125 14.9375 24.93125 14.9375 21.53125 C8.9975 21.53125 3.0575 21.53125 -3.0625 21.53125 C-3.0625 24.50125 -3.0625 27.47125 -3.0625 30.53125 C-5.0425 30.53125 -7.0225 30.53125 -9.0625 30.53125 C-9.17861395 26.28147954 -9.24972349 22.03211663 -9.3125 17.78125 C-9.34601563 16.5746875 -9.37953125 15.368125 -9.4140625 14.125 C-9.42695313 12.96484375 -9.43984375 11.8046875 -9.453125 10.609375 C-9.47407227 9.54106445 -9.49501953 8.47275391 -9.51660156 7.37207031 C-9.0625 4.53125 -9.0625 4.53125 -7.35449219 2.18457031 C-4.65848653 0.23981634 -3.29460283 0.01698249 0 0 Z " fill="#EEECF1" transform="translate(331.0625,229.46875)"/>
<path d="M0 0 C4.393125 -0.061875 8.78625 -0.12375 13.3125 -0.1875 C15.38591675 -0.22846802 15.38591675 -0.22846802 17.5012207 -0.27026367 C18.59007568 -0.27775635 19.67893066 -0.28524902 20.80078125 -0.29296875 C21.91622314 -0.3086792 23.03166504 -0.32438965 24.1809082 -0.34057617 C27 0 27 0 28.86254883 1.32885742 C30.66002201 3.96970394 30.39624242 6.35612155 30.375 9.5 C30.38273437 10.6446875 30.39046875 11.789375 30.3984375 12.96875 C30 16 30 16 28.7265625 17.90625 C27 19 27 19 23 19 C23 19.66 23 20.32 23 21 C23.99 21.33 24.98 21.66 26 22 C30 26.34285714 30 26.34285714 30 30 C26.9375 30.5625 26.9375 30.5625 23 30 C21.328125 28.03125 21.328125 28.03125 19.6875 25.5625 C17.22035333 21.93874657 17.22035333 21.93874657 13.3359375 20.1796875 C10.85870539 19.96336582 8.48223995 19.87513884 6 20 C6 22.97 6 25.94 6 29 C4.02 29 2.04 29 0 29 C0 19.43 0 9.86 0 0 Z " fill="#F4F2F6" transform="translate(98,231)"/>
<path d="M0 0 C7 0 7 0 8.83276367 1.20581055 C9.27338135 1.76051025 9.71399902 2.31520996 10.16796875 2.88671875 C10.91916992 3.8003418 10.91916992 3.8003418 11.68554688 4.73242188 C12.18119141 5.37759766 12.67683594 6.02277344 13.1875 6.6875 C13.69474609 7.31333984 14.20199219 7.93917969 14.72460938 8.58398438 C16.17004763 10.37437806 17.58517163 12.18537561 19 14 C20.32 15.65 21.64 17.3 23 19 C23.33 12.73 23.66 6.46 24 0 C26.31 0 28.62 0 31 0 C31 10.23 31 20.46 31 31 C24 31 24 31 22.16723633 29.79418945 C21.72661865 29.23948975 21.28600098 28.68479004 20.83203125 28.11328125 C20.08083008 27.1996582 20.08083008 27.1996582 19.31445312 26.26757812 C18.81880859 25.62240234 18.32316406 24.97722656 17.8125 24.3125 C17.30525391 23.68666016 16.79800781 23.06082031 16.27539062 22.41601562 C14.82995237 20.62562194 13.41482837 18.81462439 12 17 C10.68 15.35 9.36 13.7 8 12 C7.67 18.27 7.34 24.54 7 31 C4.69 31 2.38 31 0 31 C0 20.77 0 10.54 0 0 Z " fill="#E4E0EA" transform="translate(162,230)"/>
<path d="M0 0 C7 0 7 0 9.546875 2.40625 C10.63742187 3.93765625 10.63742187 3.93765625 11.75 5.5 C13.10652685 7.37826794 14.5122198 9.22389031 16 11 C16.99 11 17.98 11 19 11 C21.05634535 8.49662306 22.84453839 5.86165113 24.671875 3.1875 C27 1 27 1 34 1 C34 10.57 34 20.14 34 30 C32.02 30 30.04 30 28 30 C27.505 20.595 27.505 20.595 27 11 C25.865625 12.44375 24.73125 13.8875 23.5625 15.375 C22.92441406 16.18710938 22.28632813 16.99921875 21.62890625 17.8359375 C19.97776453 19.89398106 19.97776453 19.89398106 19 22 C18.01 22 17.02 22 16 22 C13.0680534 18.86063079 10.60822477 15.42062265 8 12 C7.67 18.27 7.34 24.54 7 31 C4.69 31 2.38 31 0 31 C0 20.77 0 10.54 0 0 Z " fill="#ECE9EF" transform="translate(284,230)"/>
<path d="M0 0 C9.57 0 19.14 0 29 0 C29 1.98 29 3.96 29 6 C21.74 6 14.48 6 7 6 C7 8.31 7 10.62 7 13 C12.61 13 18.22 13 24 13 C24 14.98 24 16.96 24 19 C18.39 19 12.78 19 7 19 C7 20.98 7 22.96 7 25 C14.26 25 21.52 25 29 25 C29 26.98 29 28.96 29 31 C19.43 31 9.86 31 0 31 C0 20.77 0 10.54 0 0 Z " fill="#E4E0EA" transform="translate(389,230)"/>
<path d="M0 0 C0.99773437 -0.01998047 1.99546875 -0.03996094 3.0234375 -0.06054688 C10.28982564 -0.05567664 10.28982564 -0.05567664 13.671875 2.29296875 C15.26997366 4.87342806 15.33150135 6.45398782 15 9.4375 C13.02 9.4375 11.04 9.4375 9 9.4375 C9 8.4475 9 7.4575 9 6.4375 C3.06 6.4375 -2.88 6.4375 -9 6.4375 C-9 12.7075 -9 18.9775 -9 25.4375 C-3.06 25.4375 2.88 25.4375 9 25.4375 C9 23.4575 9 21.4775 9 19.4375 C6.69 19.4375 4.38 19.4375 2 19.4375 C2 17.4575 2 15.4775 2 13.4375 C6.29 13.4375 10.58 13.4375 15 13.4375 C15.08119503 15.68690295 15.13927819 17.93714871 15.1875 20.1875 C15.23970703 22.06695312 15.23970703 22.06695312 15.29296875 23.984375 C14.97491202 27.7332036 14.6110214 28.83242785 12 31.4375 C9.50390625 31.95507812 9.50390625 31.95507812 6.5625 31.96875 C5.50289063 31.97390625 4.44328125 31.9790625 3.3515625 31.984375 C2.24554688 31.96890625 1.13953125 31.9534375 0 31.9375 C-1.10601562 31.95296875 -2.21203125 31.9684375 -3.3515625 31.984375 C-4.41117187 31.97921875 -5.47078125 31.9740625 -6.5625 31.96875 C-8.01849609 31.96198242 -8.01849609 31.96198242 -9.50390625 31.95507812 C-12 31.4375 -12 31.4375 -13.81274414 29.75024414 C-16.10934578 25.2765227 -15.46931191 20.30006192 -15.4375 15.375 C-15.45748047 14.27349609 -15.47746094 13.17199219 -15.49804688 12.03710938 C-15.49708008 10.45446289 -15.49708008 10.45446289 -15.49609375 8.83984375 C-15.49794678 7.87554443 -15.4997998 6.91124512 -15.50170898 5.91772461 C-15 3.4375 -15 3.4375 -13.28540039 1.62695312 C-9.08828585 -0.55746542 -4.63668088 -0.03294799 0 0 Z " fill="#EBE8EF" transform="translate(371,229.5625)"/>
<path d="M0 0 C9.24 0 18.48 0 28 0 C28 1.98 28 3.96 28 6 C20.74 6 13.48 6 6 6 C6 8.31 6 10.62 6 13 C11.94 13 17.88 13 24 13 C24 14.65 24 16.3 24 18 C18.06 18 12.12 18 6 18 C6 20.31 6 22.62 6 25 C13.26 25 20.52 25 28 25 C28 26.98 28 28.96 28 31 C18.76 31 9.52 31 0 31 C0 20.77 0 10.54 0 0 Z " fill="#ECE9EF" transform="translate(131,230)"/>
<path d="M0 0 C10.23 0 20.46 0 31 0 C31 2.31 31 4.62 31 7 C27.04 7 23.08 7 19 7 C19 14.92 19 22.84 19 31 C16.69 31 14.38 31 12 31 C12 23.08 12 15.16 12 7 C8.04 7 4.08 7 0 7 C0 4.69 0 2.38 0 0 Z " fill="#DDD8E4" transform="translate(65,230)"/>
<path d="M0 0 C6.27 0 12.54 0 19 0 C19 6.27 19 12.54 19 19 C12.73 19 6.46 19 0 19 C0 12.73 0 6.46 0 0 Z " fill="#45286A" transform="translate(202,236)"/>
<path d="M0 0 C3.125 -0.5 3.125 -0.5 7 0 C9.4592401 2.38152145 11.20756711 5.09770155 13 8 C13.99 9.485 13.99 9.485 15 11 C18.79413621 9.73528793 19.47675261 8.17005779 21.75 4.9375 C25.39506112 0.19217043 25.39506112 0.19217043 28.078125 -0.66015625 C30 -0.625 30 -0.625 33 0 C31.2782754 3.99440108 28.61051014 7.23742279 25.9375 10.625 C22.13282584 15.47022319 19.94455134 18.39551214 19.4375 24.625 C19.35371094 25.62789062 19.26992187 26.63078125 19.18359375 27.6640625 C19.09271484 28.82035156 19.09271484 28.82035156 19 30 C17.02 30 15.04 30 13 30 C13.06703125 29.40316406 13.1340625 28.80632812 13.203125 28.19140625 C13.3846134 18.01293175 7.08096142 11.24311288 1.08569336 3.61303711 C0 2 0 2 0 0 Z " fill="#EEEBF1" transform="translate(229,230)"/>
<path d="M0 0 C2.31 0 4.62 0 7 0 C7 10.23 7 20.46 7 31 C4.69 31 2.38 31 0 31 C0 20.77 0 10.54 0 0 Z " fill="#DED9E5" transform="translate(275,230)"/>
<path d="M0 0 C2.375 1.5 2.375 1.5 4 4 C4.81753559 8.07099353 4.65416433 10.99359333 2.375 14.5 C-0.76658665 16.48415999 -2.3550152 16.75937183 -6 16 C-9.15477047 12.68344643 -10.01545472 10.91182868 -9.9375 6.3125 C-8.27756584 0.44739929 -6.13987102 -0.87712443 0 0 Z " fill="#402265" transform="translate(273,289)"/>
<path d="M0 0 C2.375 1.5 2.375 1.5 4 4 C4.81753559 8.07099353 4.65416433 10.99359333 2.375 14.5 C-0.76658665 16.48415999 -2.3550152 16.75937183 -6 16 C-9.15477047 12.68344643 -10.01545472 10.91182868 -9.9375 6.3125 C-8.27756584 0.44739929 -6.13987102 -0.87712443 0 0 Z " fill="#402265" transform="translate(188,289)"/>
<path d="M0 0 C5.94 0 11.88 0 18 0 C18 2.97 18 5.94 18 9 C12.06 9 6.12 9 0 9 C0 6.03 0 3.06 0 0 Z " fill="#442769" transform="translate(328,236)"/>
<path d="M0 0 C5.94 0 11.88 0 18 0 C18 2.97 18 5.94 18 9 C12.06 9 6.12 9 0 9 C0 6.03 0 3.06 0 0 Z " fill="#472A6B" transform="translate(104,236)"/>
<path d="M0 0 C6.8359375 -0.1953125 6.8359375 -0.1953125 9 0 C11 2 11 2 11.1875 4.875 C11 8 11 8 10.4375 10.1875 C9.77806294 12.2175204 9.77806294 12.2175204 11 15 C10.01 14.67 9.02 14.34 8 14 C7.3125 11.9375 7.3125 11.9375 7 10 C5.68 10 4.36 10 3 10 C3 11.98 3 13.96 3 16 C2.01 16 1.02 16 0 16 C0 10.72 0 5.44 0 0 Z " fill="#9F90B2" transform="translate(198,289)"/>
<path d="M0 0 C6.8359375 -0.29296875 6.8359375 -0.29296875 9 0 C11 3 11 3 10.625 5.4375 C10.41875 6.283125 10.2125 7.12875 10 8 C10 11.11257569 10.17361624 13.10765685 11 16 C10.01 15.67 9.02 15.34 8 15 C7.690625 14.34 7.38125 13.68 7.0625 13 C6.17972859 10.79394438 6.17972859 10.79394438 3.875 10.25 C3.25625 10.1675 2.6375 10.085 2 10 C2 11.98 2 13.96 2 16 C1.34 16 0.68 16 0 16 C0 10.72 0 5.44 0 0 Z " fill="#C8BFD3" transform="translate(92,289)"/>
<path d="M0 0 C0.99 0 1.98 0 3 0 C4.38671875 1.75 4.38671875 1.75 5.6875 4 C6.12449219 4.7425 6.56148438 5.485 7.01171875 6.25 C7.33785156 6.8275 7.66398437 7.405 8 8 C8.33773438 7.4225 8.67546875 6.845 9.0234375 6.25 C9.46945312 5.5075 9.91546875 4.765 10.375 4 C10.81585938 3.2575 11.25671875 2.515 11.7109375 1.75 C12.34902344 0.88375 12.34902344 0.88375 13 0 C13.66 0 14.32 0 15 0 C15 4.95 15 9.9 15 15 C14.34 15 13.68 15 13 15 C12.67 12.36 12.34 9.72 12 7 C11.01 8.98 10.02 10.96 9 13 C6 12 6 12 4.8125 9.9375 C4.544375 9.298125 4.27625 8.65875 4 8 C3.67 10.64 3.34 13.28 3 16 C2.01 16 1.02 16 0 16 C0 10.72 0 5.44 0 0 Z " fill="#C0B6CC" transform="translate(338,289)"/>
<path d="M0 0 C7.37042925 -0.36248013 7.37042925 -0.36248013 10.0625 1.1875 C11.40184476 3.77689986 10.82159973 5.26133423 10 8 C9.67 8.99 9.34 9.98 9 11 C9.38932856 13.14255793 9.38932856 13.14255793 10 15 C9.34 15 8.68 15 8 15 C7.34 13.35 6.68 11.7 6 10 C4.68 10 3.36 10 2 10 C2 11.65 2 13.3 2 15 C1.34 15 0.68 15 0 15 C0 10.05 0 5.1 0 0 Z " fill="#CCC3D6" transform="translate(303,289)"/>
<path d="M0 0 C3 1 3 1 4.6875 3.9375 C6 7 6 7 6 9 C6.66 9 7.32 9 8 9 C8.28875 8.071875 8.5775 7.14375 8.875 6.1875 C10 3 10 3 12 0 C12.99 0 13.98 0 15 0 C15 5.28 15 10.56 15 16 C14.01 16 13.02 16 12 16 C11.67 13.36 11.34 10.72 11 8 C10.01 9.32 9.02 10.64 8 12 C5 11 5 11 3.8125 8.9375 C3.544375 8.298125 3.27625 7.65875 3 7 C2.67 9.64 2.34 12.28 2 15 C1.34 15 0.68 15 0 15 C0 10.05 0 5.1 0 0 Z " fill="#C1B7CD" transform="translate(216,289)"/>
<path d="M0 0 C4.88738031 2.44369016 6.02714538 4.54071807 9 9 C9.33 6.03 9.66 3.06 10 0 C10.99 0 11.98 0 13 0 C13 5.28 13 10.56 13 16 C12.01 16 11.02 16 10 16 C8.17578125 13.8125 8.17578125 13.8125 6.3125 11 C5.68988281 10.071875 5.06726563 9.14375 4.42578125 8.1875 C3.95527344 7.465625 3.48476562 6.74375 3 6 C2.67 9.3 2.34 12.6 2 16 C1.34 16 0.68 16 0 16 C0 10.72 0 5.44 0 0 Z " fill="#BCB2C9" transform="translate(127,289)"/>
<path d="M0 0 C0.99 0 1.98 0 3 0 C3.83986084 1.93467942 4.67168027 3.87285129 5.5 5.8125 C5.9640625 6.89144531 6.428125 7.97039062 6.90625 9.08203125 C8 12 8 12 8 15 C7.34 15 6.68 15 6 15 C5.67 13.68 5.34 12.36 5 11 C2.69 11 0.38 11 -2 11 C-2.33 12.65 -2.66 14.3 -3 16 C-3.66 16 -4.32 16 -5 16 C-4.39363767 10.23955788 -2.24341721 5.27985631 0 0 Z " fill="#AB9DBB" transform="translate(364,289)"/>
<path d="M0 0 C0.99 0 1.98 0 3 0 C3.83986084 1.93467942 4.67168027 3.87285129 5.5 5.8125 C5.9640625 6.89144531 6.428125 7.97039062 6.90625 9.08203125 C8 12 8 12 8 15 C7.34 15 6.68 15 6 15 C5.67 13.68 5.34 12.36 5 11 C2.69 11 0.38 11 -2 11 C-2.33 12.65 -2.66 14.3 -3 16 C-3.66 16 -4.32 16 -5 16 C-4.39363767 10.23955788 -2.24341721 5.27985631 0 0 Z " fill="#AB9DBB" transform="translate(113,289)"/>
<path d="M0 0 C1.134375 0.020625 2.26875 0.04125 3.4375 0.0625 C3.7675 1.0525 4.0975 2.0425 4.4375 3.0625 C2.1275 2.7325 -0.1825 2.4025 -2.5625 2.0625 C-2.5625 3.3825 -2.5625 4.7025 -2.5625 6.0625 C-1.61375 6.18625 -0.665 6.31 0.3125 6.4375 C3.4375 7.0625 3.4375 7.0625 5.4375 9.0625 C5.6875 11.5625 5.6875 11.5625 5.4375 14.0625 C3.4375 16.0625 3.4375 16.0625 -0.0625 16.25 C-3.5625 16.0625 -3.5625 16.0625 -5.5625 15.0625 C-5.5625 14.0725 -5.5625 13.0825 -5.5625 12.0625 C-2.9225 12.3925 -0.2825 12.7225 2.4375 13.0625 C2.4375 12.4025 2.4375 11.7425 2.4375 11.0625 C1.48875 10.794375 0.54 10.52625 -0.4375 10.25 C-3.5625 9.0625 -3.5625 9.0625 -5.5625 6.0625 C-4.85090519 0.0851036 -4.85090519 0.0851036 0 0 Z " fill="#BBB0C8" transform="translate(151.5625,288.9375)"/>
<path d="M0 0 C0.66 1.32 1.32 2.64 2 4 C0.88625 3.79375 -0.2275 3.5875 -1.375 3.375 C-2.57125 3.25125 -3.7675 3.1275 -5 3 C-5.66 3.66 -6.32 4.32 -7 5 C-6.67673447 8.59679066 -6.67673447 8.59679066 -6 12 C-2.52852158 12.74957157 -2.52852158 12.74957157 1 13 C1 12.01 1 11.02 1 10 C0.01 10 -0.98 10 -2 10 C-2 9.34 -2 8.68 -2 8 C-0.35 8 1.3 8 3 8 C3 10.64 3 13.28 3 16 C-5.03956273 16.77303488 -5.03956273 16.77303488 -8.5625 13.9375 C-10.35608261 10.27235293 -10.58674844 8.0338955 -10 4 C-7.21083461 -0.18374808 -4.85662887 -0.44151172 0 0 Z " fill="#CCC4D6" transform="translate(387,289)"/>
<path d="M0 0 C2.375 1.5 2.375 1.5 4 4 C4.81753559 8.07099353 4.65416433 10.99359333 2.375 14.5 C-0.76658665 16.48415999 -2.3550152 16.75937183 -6 16 C-9.15477047 12.68344643 -10.01545472 10.91182868 -9.9375 6.3125 C-8.27756584 0.44739929 -6.13987102 -0.87712443 0 0 Z M-7 4 C-7.3176246 5.91006306 -7.3176246 5.91006306 -7.25 8 C-7.25515625 8.70125 -7.2603125 9.4025 -7.265625 10.125 C-7.15705515 12.2435669 -7.15705515 12.2435669 -5 14 C-2.5 14.41666667 -2.5 14.41666667 0 14 C2.31332486 10.53001271 2.33957563 9.07490752 2 5 C1.34 4.01 0.68 3.02 0 2 C-3.45795783 1.56775527 -4.47975609 1.47975609 -7 4 Z " fill="#C3BACF" transform="translate(273,289)"/>
<path d="M0 0 C2.375 1.5 2.375 1.5 4 4 C4.81753559 8.07099353 4.65416433 10.99359333 2.375 14.5 C-0.76658665 16.48415999 -2.3550152 16.75937183 -6 16 C-9.15477047 12.68344643 -10.01545472 10.91182868 -9.9375 6.3125 C-8.27756584 0.44739929 -6.13987102 -0.87712443 0 0 Z M-7 4 C-7.3176246 5.91006306 -7.3176246 5.91006306 -7.25 8 C-7.25515625 8.70125 -7.2603125 9.4025 -7.265625 10.125 C-7.15705515 12.2435669 -7.15705515 12.2435669 -5 14 C-2.5 14.41666667 -2.5 14.41666667 0 14 C2.31332486 10.53001271 2.33957563 9.07490752 2 5 C1.34 4.01 0.68 3.02 0 2 C-3.45795783 1.56775527 -4.47975609 1.47975609 -7 4 Z " fill="#C3BACF" transform="translate(188,289)"/>
<path d="M0 0 C0.99 0 1.98 0 3 0 C3.33 4.62 3.66 9.24 4 14 C5.65 13.67 7.3 13.34 9 13 C10.28446919 10.43106162 10.32977144 8.23423663 10.5625 5.375 C10.64628906 4.37210937 10.73007812 3.36921875 10.81640625 2.3359375 C10.87699219 1.56507813 10.93757813 0.79421875 11 0 C11.66 0 12.32 0 13 0 C13.45552147 9.63343558 13.45552147 9.63343558 11.9375 14.1875 C10 16 10 16 6.5 16.625 C3 16 3 16 1.0625 14.1875 C-0.50882446 9.47352661 -0.23281375 4.92357961 0 0 Z " fill="#C3B9CE" transform="translate(283,289)"/>
<path d="M0 0 C3.3 0 6.6 0 10 0 C10 0.66 10 1.32 10 2 C7.36 2 4.72 2 2 2 C2 3.65 2 5.3 2 7 C4.31 7 6.62 7 9 7 C9 7.66 9 8.32 9 9 C6.69 9 4.38 9 2 9 C2 10.65 2 12.3 2 14 C4.64 14 7.28 14 10 14 C10 14.66 10 15.32 10 16 C6.7 16 3.4 16 0 16 C0 10.72 0 5.44 0 0 Z " fill="#BDB2CA" transform="translate(397,289)"/>
<path d="M0 0 C3.3 0 6.6 0 10 0 C10 0.66 10 1.32 10 2 C7.36 2 4.72 2 2 2 C2 3.65 2 5.3 2 7 C4.31 7 6.62 7 9 7 C9 7.66 9 8.32 9 9 C7.02 9 5.04 9 3 9 C3 11.31 3 13.62 3 16 C2.01 16 1.02 16 0 16 C0 10.72 0 5.44 0 0 Z " fill="#B7ABC5" transform="translate(163,289)"/>
<path d="M0 0 C0.66 0.33 1.32 0.66 2 1 C1.34 1.66 0.68 2.32 0 3 C14.85 3.33 29.7 3.66 45 4 C45 4.33 45 4.66 45 5 C28.17 5 11.34 5 -6 5 C-4.35 3.68 -2.7 2.36 -1 1 C-0.67 0.67 -0.34 0.34 0 0 Z " fill="#D1C9D9" transform="translate(287,193)"/>
<path d="M0 0 C0.33 0 0.66 0 1 0 C1 2.31 1 4.62 1 7 C2.98 6.67 4.96 6.34 7 6 C6.67 4.02 6.34 2.04 6 0 C7.32 0.33 8.64 0.66 10 1 C10.12529002 6.51276102 10.12529002 6.51276102 9.4375 9.1875 C8.77806294 11.2175204 8.77806294 11.2175204 10 14 C9.01 13.67 8.02 13.34 7 13 C6.3125 10.9375 6.3125 10.9375 6 9 C4.35 9 2.7 9 1 9 C1 10.65 1 12.3 1 14 C0.67 14 0.34 14 0 14 C0 9.38 0 4.76 0 0 Z " fill="#D7D0DE" transform="translate(199,290)"/>
<path d="M0 0 C0.99 0.33 1.98 0.66 3 1 C4.1875 4.0625 4.1875 4.0625 5 7 C5.66 7 6.32 7 7 7 C7.309375 6.21625 7.61875 5.4325 7.9375 4.625 C9 2 9 2 10 0 C10.66 0 11.32 0 12 0 C10.94124926 3.40312738 9.99097846 6.01353231 8 9 C7.60612212 11.32387947 7.26513915 13.65793749 7 16 C6.34 16 5.68 16 5 16 C4.89042969 15.40832031 4.78085938 14.81664062 4.66796875 14.20703125 C3.732075 9.54278029 2.67286745 6.00930117 0 2 C0 1.34 0 0.68 0 0 Z " fill="#CFC7D8" transform="translate(246,289)"/>
<path d="M0 0 C3 1 3 1 4.6875 3.9375 C6 7 6 7 6 9 C6.99 9 7.98 9 9 9 C8.67 9.99 8.34 10.98 8 12 C5 11 5 11 3.8125 8.9375 C3.544375 8.298125 3.27625 7.65875 3 7 C2.67 9.64 2.34 12.28 2 15 C1.34 15 0.68 15 0 15 C0 10.05 0 5.1 0 0 Z " fill="#D7D0DF" transform="translate(216,289)"/>
<path d="M0 0 C3.96 0 7.92 0 12 0 C12 0.66 12 1.32 12 2 C10.35 2 8.7 2 7 2 C7 6.29 7 10.58 7 15 C6.34 15 5.68 15 5 15 C5 10.71 5 6.42 5 2 C3.35 2 1.7 2 0 2 C0 1.34 0 0.68 0 0 Z " fill="#CDC4D6" transform="translate(74,289)"/>
<path d="M0 0 C0 9.57 0 19.14 0 29 C-0.33 29 -0.66 29 -1 29 C-1 19.76 -1 10.52 -1 1 C-5.44607497 2.77842999 -6.9797308 3.64414533 -10 7 C-10.66 6.67 -11.32 6.34 -12 6 C-7.875 0 -7.875 0 0 0 Z " fill="#EEEBF1" transform="translate(318,231)"/>
<path d="M0 0 C0.99 0 1.98 0 3 0 C3 5.28 3 10.56 3 16 C2.01 16 1.02 16 0 16 C0 10.72 0 5.44 0 0 Z " fill="#B2A6C1" transform="translate(329,289)"/>
<path d="M0 0 C1.98 0.99 1.98 0.99 4 2 C4.75 4.625 4.75 4.625 5 7 C4.34 6.67 3.68 6.34 3 6 C2.67 9.3 2.34 12.6 2 16 C1.34 16 0.68 16 0 16 C0 10.72 0 5.44 0 0 Z " fill="#D4CCDC" transform="translate(127,289)"/>
<path d="M0 0 C1.65 0 3.3 0 5 0 C5 2.64 5 5.28 5 8 C2.03 8 -0.94 8 -4 8 C-4 7.34 -4 6.68 -4 6 C-0.535 5.505 -0.535 5.505 3 5 C3 4.01 3 3.02 3 2 C2.01 2 1.02 2 0 2 C0 1.34 0 0.68 0 0 Z " fill="#BAAFC8" transform="translate(385,297)"/>
<path d="M0 0 C1.98 0 3.96 0 6 0 C6 1.98 6 3.96 6 6 C4.02 6 2.04 6 0 6 C0 4.02 0 2.04 0 0 Z " fill="#3E1F64" transform="translate(305,291)"/>
<path d="M0 0 C1.98 0 3.96 0 6 0 C6 1.98 6 3.96 6 6 C4.02 6 2.04 6 0 6 C0 4.02 0 2.04 0 0 Z " fill="#3C1E63" transform="translate(94,291)"/>
<path d="M0 0 C1.65 0 3.3 0 5 0 C5.38218767 1.65614657 5.71395102 3.32457024 6 5 C5 6 5 6 2.4375 6.0625 C1.2309375 6.0315625 1.2309375 6.0315625 0 6 C0 4.02 0 2.04 0 0 Z " fill="#3C1D62" transform="translate(201,291)"/>
<path d="M0 0 C3.625 -0.1875 3.625 -0.1875 7 0 C7.33 0.99 7.66 1.98 8 3 C5.69 2.67 3.38 2.34 1 2 C1 3.65 1 5.3 1 7 C1.66 7.33 2.32 7.66 3 8 C1.68 7.67 0.36 7.34 -1 7 C-1.625 5.1875 -1.625 5.1875 -2 3 C-1.34 2.01 -0.68 1.02 0 0 Z " fill="#C1B8CD" transform="translate(148,289)"/>
<path d="M0 0 C0.66 0 1.32 0 2 0 C2 4.95 2 9.9 2 15 C1.34 15 0.68 15 0 15 C-0.19390729 12.68802845 -0.37996367 10.3753971 -0.5625 8.0625 C-0.71912109 6.13083984 -0.71912109 6.13083984 -0.87890625 4.16015625 C-0.91886719 3.11730469 -0.95882813 2.07445312 -1 1 C-0.67 0.67 -0.34 0.34 0 0 Z " fill="#E1DCE7" transform="translate(351,289)"/>
<path d="M0 0 C0.66 0 1.32 0 2 0 C1.69078116 1.45903258 1.37751201 2.91720722 1.0625 4.375 C0.88847656 5.18710937 0.71445312 5.99921875 0.53515625 6.8359375 C0 9 0 9 -1 11 C-1.66 11 -2.32 11 -3 11 C-2.44894091 7.0507432 -1.61064629 3.65079826 0 0 Z " fill="#C7BED2" transform="translate(362,294)"/>
<path d="M0 0 C0.66 0 1.32 0 2 0 C1.69078116 1.45903258 1.37751201 2.91720722 1.0625 4.375 C0.88847656 5.18710937 0.71445313 5.99921875 0.53515625 6.8359375 C0 9 0 9 -1 11 C-1.66 11 -2.32 11 -3 11 C-2.44894091 7.0507432 -1.61064629 3.65079826 0 0 Z " fill="#C7BED2" transform="translate(111,294)"/>
<path d="M0 0 C2.86724686 0.57344937 3.8614515 0.8614515 6 3 C6.26991906 5.68839385 6.08737357 8.29141936 6 11 C5.34 11 4.68 11 4 11 C3.87882812 10.37351562 3.75765625 9.74703125 3.6328125 9.1015625 C3.46523438 8.28429687 3.29765625 7.46703125 3.125 6.625 C2.96257812 5.81289063 2.80015625 5.00078125 2.6328125 4.1640625 C2.13341068 1.81326077 2.13341068 1.81326077 0 0 Z " fill="#D6CFDE" transform="translate(271,290)"/>
<path d="M0 0 C-2 2 -2 2 -4.0625 2.75 C-6.36039986 3.91669817 -6.36039986 3.91669817 -6.75 7.125 C-6.8325 8.07375 -6.915 9.0225 -7 10 C-7.33 10 -7.66 10 -8 10 C-9.32850242 3.59903382 -9.32850242 3.59903382 -7.9375 1.0625 C-5.23787512 -0.41793945 -3.02429981 -0.20161999 0 0 Z " fill="#B6AAC4" transform="translate(273,289)"/>
<path d="M0 0 C2.86724686 0.57344937 3.8614515 0.8614515 6 3 C6.26991906 5.68839385 6.08737357 8.29141936 6 11 C5.34 11 4.68 11 4 11 C3.87882813 10.37351562 3.75765625 9.74703125 3.6328125 9.1015625 C3.46523437 8.28429687 3.29765625 7.46703125 3.125 6.625 C2.96257812 5.81289063 2.80015625 5.00078125 2.6328125 4.1640625 C2.13341068 1.81326077 2.13341068 1.81326077 0 0 Z " fill="#D6CFDE" transform="translate(186,290)"/>
<path d="M0 0 C-2 2 -2 2 -4.0625 2.75 C-6.36039986 3.91669817 -6.36039986 3.91669817 -6.75 7.125 C-6.8325 8.07375 -6.915 9.0225 -7 10 C-7.33 10 -7.66 10 -8 10 C-9.32850242 3.59903382 -9.32850242 3.59903382 -7.9375 1.0625 C-5.23787512 -0.41793945 -3.02429981 -0.20161999 0 0 Z " fill="#B6AAC4" transform="translate(188,289)"/>
<path d="M0 0 C2.9375 0.375 2.9375 0.375 6 1 C6.33 1.66 6.66 2.32 7 3 C6.34 3.66 5.68 4.32 5 5 C3.02 4.34 1.04 3.68 -1 3 C-0.67 2.01 -0.34 1.02 0 0 Z " fill="#9D8EB0" transform="translate(149,295)"/>
<path d="M0 0 C0.66 0 1.32 0 2 0 C0.90931332 3.77545388 0.0916909 6.47043472 -3 9 C-3.66 8.34 -4.32 7.68 -5 7 C-4.34 7 -3.68 7 -3 7 C-2.690625 6.21625 -2.38125 5.4325 -2.0625 4.625 C-1 2 -1 2 0 0 Z " fill="#C7BED2" transform="translate(256,289)"/>
<path d="M0 0 C1.98 0 3.96 0 6 0 C6.66 1.32 7.32 2.64 8 4 C5.36 3.67 2.72 3.34 0 3 C0 2.01 0 1.02 0 0 Z " fill="#BEB4CB" transform="translate(381,289)"/>
</svg>
